<svg width="19" height="19" viewBox="0 0 19 19" fill="none" xmlns="http://www.w3.org/2000/svg">
<g clip-path="url(#clip0)">
<path d="M4.45313 12.5885V18.443C4.45313 18.9764 5.1352 19.2037 5.45497 18.7768L8.31481 14.9645L9.18658 14.5179L18.6259 1.17154L18.8015 0.133743L17.2678 0.981284L4.45001 12.1083L4.45313 12.5885Z" fill="#FE9923"/>
<path d="M18.2295 0.0442213C18.2044 0.0542779 0.331498 9.02788 0.307228 9.04005C-0.0825317 9.23491 -0.106504 9.78313 0.264292 10.012L4.45268 12.5897L18.801 0.134991C18.6551 0.00859629 18.4457 -0.0453607 18.2295 0.0442213Z" fill="#FEDB41"/>
<path d="M18.8206 0.161056C18.8126 0.153226 18.8099 0.141091 18.8015 0.133743L18.6926 0.288118L8.31482 14.9645L14.7374 18.917C15.0719 19.1226 15.5048 18.9266 15.5762 18.5457L18.991 0.659398C19.0273 0.470622 18.9508 0.287784 18.8206 0.161056Z" fill="#FFCC33"/>
</g>
<defs>
<clipPath id="clip0">
<rect width="19" height="19" fill="white"/>
</clipPath>
</defs>
</svg>
