<svg width="71" height="71" viewBox="0 0 71 71" fill="none" xmlns="http://www.w3.org/2000/svg">
<path d="M71 35.5C71 43.335 68.4609 50.5764 64.1621 56.4478C57.7041 65.2701 47.2705 61.9285 35.5 61.9285C23.7295 61.9285 13.2959 65.2701 6.83791 56.4478C2.53908 50.5764 0 43.335 0 35.5C0 15.8946 15.8946 0 35.5 0C55.1054 0 71 15.8946 71 35.5Z" fill="#EF9B14"/>
<path d="M35.5 61.9285C47.2705 61.9285 57.7042 65.2701 64.1621 56.4478C68.4609 50.5764 71 43.335 71 35.5C71 35.2921 70.9957 35.0852 70.9921 34.8782L46.2759 10.1619L21.7696 30.5179L26.7874 35.5688C27.3816 37.7583 29.7895 43.7066 29.7895 43.7066L6.83792 56.4478V56.4479C13.296 65.2701 23.7295 61.9285 35.5 61.9285Z" fill="#DB8200"/>
<path d="M23.8858 41.6473H47.1143V47.7031H23.8858V41.6473Z" fill="#584B66"/>
<path d="M35.5 41.6473H47.1138V47.7031H35.5V41.6473Z" fill="#4A3E56"/>
<path d="M27.7302 36.1224H43.2698V52.6021H27.7302V36.1224Z" fill="#FFBB7D"/>
<path d="M35.5 36.1228H43.2698V52.6025H35.5V36.1228Z" fill="#EFA36A"/>
<path d="M18.6602 46.0796H52.34V61.9289H18.6602V46.0796Z" fill="#FFD4A6"/>
<path d="M35.5 46.0796H52.3403V61.9285H35.5V46.0796Z" fill="#FFBB7D"/>
<path d="M64.1621 56.4478C57.7042 65.2701 47.2705 71 35.5 71C23.7295 71 13.2959 65.2701 6.83792 56.4478C7.01542 50.6915 11.7386 46.0793 17.5378 46.0793H27.7302L35.5 53.5273L43.2698 46.0793H53.4636C59.2642 46.0793 63.986 50.6901 64.1621 56.4478Z" fill="#7B7284"/>
<path d="M64.1621 56.4478C57.7042 65.2701 47.2705 71 35.5 71V53.5273L41.5752 47.7031L43.2698 46.0793H53.4636C59.2642 46.0793 63.986 50.6901 64.1621 56.4478Z" fill="#635A6D"/>
<path d="M48.4825 20.9601C47.9341 12.6338 41.1991 9.5567 35.5001 9.5567C29.8011 9.5567 23.066 12.6338 22.5176 20.9601C21.0438 21.2451 19.997 23.1782 20.1618 24.741L20.4145 28.2976C20.5874 29.9388 22.03 31.1371 23.6199 30.9588L23.8941 30.9291C27.1508 39.6742 32.2582 40.5859 35.5001 41.0979C38.7419 40.5859 43.8494 39.6742 47.1061 30.9291L47.3802 30.9588C48.9701 31.1371 50.4127 29.939 50.5856 28.2976L50.8383 24.741C51.0032 23.1782 49.9563 21.2451 48.4825 20.9601Z" fill="#FFD4A6"/>
<path d="M50.8384 24.741L50.5857 28.2976C50.4128 29.9388 48.9702 31.1371 47.3803 30.9588L47.1062 30.9291C45.9931 33.9144 44.6653 35.9878 43.27 37.4426C40.5792 40.2496 37.6358 40.7602 35.5002 41.0979V9.5567C41.1992 9.5567 47.9342 12.6338 48.4826 20.9601C49.9563 21.2451 51.0031 23.1782 50.8384 24.741Z" fill="#FFBB7D"/>
<path d="M38.2493 28.3616C36.6642 27.0138 34.3359 27.0138 32.7507 28.3616C30.9829 29.8645 28.7628 30.7321 26.4443 30.8259L23.8939 30.9291L24.0648 31.9572C24.9946 37.5488 29.8317 41.6479 35.4999 41.6479C41.2951 41.3265 46.0918 37.0276 47.0439 31.3021L47.1059 30.9291L44.5554 30.8259C42.2372 30.7321 40.0171 29.8645 38.2493 28.3616Z" fill="#EFEBDC"/>
<path d="M47.1055 30.9294L47.0444 31.3024C46.5688 34.166 45.1308 36.6718 43.0881 38.5022C41.0455 40.3327 38.3983 41.4878 35.5 41.6473V27.3502C36.479 27.3502 37.4581 27.6872 38.2499 28.3612C40.0166 29.8644 42.2367 30.7324 44.5553 30.8254L47.1055 30.9294Z" fill="#D6CFBD"/>
<path d="M23.8857 41.6473L35.5 53.5273L29.6929 59.7676L19.7608 46.0796L23.8857 41.6473Z" fill="#9D97A5"/>
<path d="M47.1143 41.6473L35.5 53.5273L41.3072 59.7676L51.2393 46.0796L47.1143 41.6473Z" fill="#7F7887"/>
<path d="M27.6305 4.09082C27.6305 4.09082 20.1217 11.4099 21.6769 18.6324L22.7607 25.8276H25.7422L27.1676 20.5218C27.6747 18.634 29.6207 17.4893 31.503 18.016C31.6841 18.0666 31.8643 18.1237 32.0432 18.1872L32.5644 18.3722C34.4734 19.0498 36.5551 18.9827 38.4424 18.2473C38.8227 18.0992 39.2099 17.9805 39.6009 17.8909C41.4558 17.4661 43.3137 18.5913 43.8074 20.4291L45.2578 25.8276H48.2392L49.3201 18.336C49.5521 11.9143 44.3898 4.09082 27.6305 4.09082Z" fill="#494949"/>
<path d="M49.3201 18.3366L48.2398 25.8276H45.2584L43.8079 20.4291C43.3142 18.5917 41.456 17.4657 39.6006 17.8915C39.2095 17.9802 38.8226 18.0995 38.4426 18.2478C37.4941 18.6167 36.4985 18.8178 35.5 18.84V4.78003C46.0544 6.82683 49.5101 13.056 49.3201 18.3366Z" fill="#333333"/>
</svg>
