<svg width="38" height="38" viewBox="0 0 38 38" fill="none" xmlns="http://www.w3.org/2000/svg">
<path d="M19 0C8.52308 0 0 8.52308 0 19C0 29.4769 8.52308 38 19 38C29.4769 38 38 29.4769 38 19C38 8.52308 29.4769 0 19 0Z" fill="#2196F3"/>
<path d="M19 0C8.52308 0 0 8.52308 0 19C0 29.4769 8.52308 38 19 38V0Z" fill="#1D83D4"/>
<path d="M16.9892 29.7524L6.69751 19.8566C6.46476 19.6318 6.33334 19.323 6.33334 19C6.33334 18.677 6.46476 18.3683 6.69751 18.1434L16.9892 8.24758C17.7413 7.52242 19 8.05917 19 9.10417V14.25H28.1042C29.1951 14.25 30.0833 15.1383 30.0833 16.2292V21.7708C30.0833 22.8618 29.1951 23.75 28.1042 23.75H19V28.8958C19 29.9472 17.7365 30.4713 16.9892 29.7524Z" fill="white"/>
<path d="M30.0833 19H6.33334C6.33334 19.323 6.46476 19.6317 6.69751 19.8566L16.9892 29.7524C17.2267 29.982 17.518 30.0849 17.803 30.0849C18.4126 30.0833 19 29.6115 19 28.8958V23.75H28.1042C29.1951 23.75 30.0833 22.8617 30.0833 21.7708V19Z" fill="#DEDEDE"/>
</svg>
