<svg width="38" height="38" viewBox="0 0 38 38" fill="none" xmlns="http://www.w3.org/2000/svg">
<path d="M19 0C8.52308 0 0 8.52308 0 19C0 29.4769 8.52308 38 19 38C29.4769 38 38 29.4769 38 19C38 8.52308 29.4769 0 19 0Z" fill="#2196F3"/>
<path d="M19 0C8.52308 0 0 8.52308 0 19C0 29.4769 8.52308 38 19 38V0Z" fill="#1D83D4"/>
<path d="M19 28.8958V23.75H9.89581C8.80489 23.75 7.91664 22.8618 7.91664 21.7708V16.2292C7.91664 15.1383 8.80489 14.25 9.89581 14.25H19V9.10417C19 8.05917 20.2587 7.52242 21.0108 8.24758L31.3025 18.1434C31.5352 18.3683 31.6666 18.677 31.6666 19C31.6666 19.323 31.5352 19.6318 31.3025 19.8566L21.0108 29.7524C20.2587 30.4744 19 29.9424 19 28.8958Z" fill="white"/>
<path d="M7.91664 19H31.6666C31.6666 19.323 31.5352 19.6318 31.3025 19.8566L21.0108 29.7524C20.7733 29.9804 20.482 30.0833 20.197 30.0833C19.5874 30.0833 19 29.6115 19 28.8958V23.75H9.89581C8.80489 23.75 7.91664 22.8618 7.91664 21.7708V19Z" fill="#DEDEDE"/>
</svg>
